# xmcd CD database file
# Copyright (C) 1993-1998 Ti Kan
# 
# Track frame offsets:
#     150
#     1547
#     12495
#     24905
#     33975
#     44392
#     57447
#     71970
#     78835
#     95790
#     112185
#     113665
#     132677
#     153205
#     161252
#     180547
#     198642
#     217260
# 
# Disc length: 2928 seconds
# 
# Revision: 1
# Processed by: cddbd v1.4b41PL1 Copyright (c) Steve Scherf et al.
# Submitted via: DiscPlay 4.0.3
# 
DISCID=f50b6e12
DTITLE=Various Rap - Old School Rap- Volume 3
DYEAR=1900
DGENRE=
TTITLE0=Grand Master Flash Intro
TTITLE1=Tonite- DJ Quik
TTITLE2=My Melody- Eric B. and Rakim
TTITLE3=Go See The Doctor- Kool Moe Dee
TTITLE4=Vapors- Biz Markie
TTITLE5=La Di Da Di- Doug E. Fresh
TTITLE6=I Got It Made- Special Ed
TTITLE7=Killers- Ice T
TTITLE8=Cinderfella- Dana Dane
TTITLE9=My Philosophy- Boogie Down Productions
TTITLE10=Grandmaster Flash Break
TTITLE11=Ain't No Half Steppin'- Big Daddy Kane
TTITLE12=Request Line- Rock Master Scott
TTITLE13=Have A Nice Day- Roxanne Shante
TTITLE14=Tonite (Reprise)- DJ Quik
TTITLE15=Bust A Move- Young MC
TTITLE16=Wild Thing- Tone Loc
TTITLE17=Grand Master Flash Outro
EXTD=
EXTT0=
EXTT1=
EXTT2=
EXTT3=
EXTT4=
EXTT5=
EXTT6=
EXTT7=
EXTT8=
EXTT9=
EXTT10=
EXTT11=
EXTT12=
EXTT13=
EXTT14=
EXTT15=
EXTT16=
EXTT17=
PLAYORDER=
